<svg xmlns="http://www.w3.org/2000/svg" shape-rendering="geometricPrecision" text-rendering="geometricPrecision" image-rendering="optimizeQuality" fill-rule="evenodd" clip-rule="evenodd" viewBox="0 0 512 426.481"><path fill="#4E2F26" fill-rule="nonzero" d="M200.489 30.537c1.905 2.556 3.4 5.359 4.415 8.443 1.486 4.505 1.923 9.537 1.097 15.201 2.405 1.961 4.854 3.704 7.447 4.983 3.22 1.588 6.811 2.507 11.081 2.279a47.355 47.355 0 004.841-.525l.182-.033c1.761-.286 3.67-.69 5.726-1.21a97.88 97.88 0 008.218-2.487 145.41 145.41 0 009.324-3.646l.322-.115c15.368-5.53 30.55-8.587 45.512-8.887l.055-.002c15.064-.296 29.873 2.207 44.389 7.785 27.833 10.698 48.83 28.58 65.422 50.297 16.31 21.352 28.314 46.348 38.379 71.811l.129.302c3.542 8.975 6.669 17.897 9.337 26.741 2.656 8.807 4.841 17.491 6.511 26.034v.069c.491 2.676.666 5.302.559 7.852a34.76 34.76 0 01-.333 3.541c30.404 19.163 46.334 49.389 48.612 79.646 1.168 15.499-1.25 31.02-7.141 45.073-5.918 14.114-15.333 26.755-28.121 36.426-25.17 19.027-63.346 26.537-113.559 11.036-9.561-2.951-18.734-6.391-27.501-9.675-38.14-14.291-68.383-25.622-91.665 22.787a3.9 3.9 0 01-7.383-1.148c-1.321-9.39.249-17.897 4.017-25.347 4.015-7.934 10.518-14.611 18.666-19.818 38.286-24.481 69.642-11.543 103.644 2.493l6.697 2.742c34.223 10.506 63.735 5.656 83.933-7.483 9.757-6.346 17.333-14.633 22.183-24.032 4.819-9.337 6.957-19.802 5.88-30.568-1.825-18.235-12.892-37.459-35.748-53.871a76.762 76.762 0 01-4.467 3.481c-11.931 8.625-27.155 14.669-40.898 17.191-4.21.773-8.307 1.224-12.149 1.326l-5.027 11.627c-.913 3.389-2.034 6.504-3.417 9.239-1.574 3.114-3.495 5.767-5.833 7.826-4.404 3.874-18.013 6.646-34.105 8.573-25.305 3.035-58.095 4.49-67.344 4.596a5.856 5.856 0 01-5.997-4.796c-.518-2.793-.491-5.5.193-8.096.71-2.693 2.087-5.174 4.228-7.388 6.783-7.018 18.07-8.018 29.413-9.019 5.908-.52 11.844-1.046 16.398-2.414a54.074 54.074 0 006.442-2.367l-3.009-.881a87.474 87.474 0 01-9.437-3.558l-51.25.873a4.58 4.58 0 01-4.718-4.43c-.085-2.707.16-5.305.946-7.703.87-2.663 2.36-5.034 4.696-6.986 4.261-3.562 10.175-4.618 15.866-4.996-2.758-1.242-6.242-2.385-10.979-3.462l-.515-.104-19.336-4.845-2.361 5.679c-7.66 18.471-20.366 49.134-29.479 55.289-9.35 6.315-31.64 5.636-46.861 5.172-3.043-.091-5.749-.176-8.727-.176-2.929-.002-5.467-2.187-5.829-5.165-.302-2.446-.255-4.747.166-6.879.467-2.366 1.4-4.51 2.823-6.408 5.36-7.159 12.366-6.895 19.563-6.622 6.39.243 13.063.494 14.906-14.473-1.45 1.716-2.978 3.209-4.581 4.339-8.969 6.317-29.131 5.676-43.162 5.227-2.758-.087-5.247-.167-8.005-.167-2.505-.015-4.825-1.636-5.6-4.154-1.122-3.617-1.282-6.901-.496-9.843l.087-.336c.986-3.348 3.102-6.004 6.337-7.965 5.938-3.597 11.872-3.537 17.452-3.481 3.834.037 7.427.073 9.081-1.539 3.637-3.544 4.686-26.671 5.232-38.839l.142-2.927-3.144-3.577c-9.733-11.065-19.543-22.221-26.797-33.594-4.017-6.3-7.634-12.353-11.181-18.291-4.776-7.996-9.437-15.794-14.275-22.907-4.883-7.176-12.602-9.57-31.387-15.385l-1.956-.607a516.405 516.405 0 01-17.893-5.922 705.277 705.277 0 01-17.387-6.359c-3.504-.758-6.206-2.001-8.021-3.766l-.053-.051c-2.962-2.938-3.588-6.438-1.667-10.53 1.041-2.227 2.757-3.91 4.869-5.196-6.037-2.156-12.237-4.805-17.748-7.991C9.803 87.944 2.184 80.71.249 71.371c-2.497-12.04 14.388-18.45 25.278-22.581 1.854-.704 3.504-1.33 4.625-1.82 16.734-7.322 35.166-14.656 53.719-19.819 18.852-5.247 37.81-8.253 55.268-6.783.899.075 1.786.162 2.662.257C148.942 9.42 160.354 2.493 171.028.568c5.009-.902 9.912-.738 14.24.555 4.689 1.405 8.726 4.099 11.595 8.158 3.593 5.085 5.19 12.152 3.626 21.256z"/><path fill="#793E22" d="M171.569 234.047c-.634 13.466-1.96 34.802-6.852 39.567-6.561 6.393-18.293.193-27.59 5.825-3.868 2.343-4.992 6.149-3.357 11.42 11.777 0 38.668 2.449 47.794-3.981 3-2.112 5.898-6.229 8.522-10.577l.089-3.595c.22-7.953.333-12.066-.679-15.09-1.091-3.258-3.968-6.751-9.91-13.963l-2.894-3.519a342.304 342.304 0 00-5.123-6.087zM195.2 24.884c.902-25.456-31.562-24.146-46.926-3.342 1.894.336 3.744.724 5.556 1.164 3.708.899 7.181 2 10.516 3.306 4.252-1.938 8.547-3.284 12.884-3.857 5.398-.715 10.809-.244 16.225 1.726.619.228 1.21.559 1.745 1.003zm267.05 218.209c87.308 56.735 47.288 209.244-98.209 164.325-53.168-16.414-93.601-47.701-123.834 15.162-2.49-17.804 6.342-32.025 20.915-41.342 39.075-24.985 71.159-8.937 106.865 5.609C467.06 417.446 529.06 323.15 448.6 264.566c6.566-6.213 11.485-13.434 13.65-21.473zm-179.135 30.559c-5.922 0-15.18.251-19.892 4.19-3.264 2.727-4.147 6.626-4.01 11.028l42.698-.736c-7.05-4.094-12.559-9.33-18.796-14.482z"/><path fill="#A86E49" d="M162.424 31.563c-7.095-2.808-14.65-4.574-23.767-5.342-33.447-2.82-73.097 11.653-106.165 26.12-7.296 3.19-28.307 9.173-26.506 17.859 3.957 19.088 41.015 28.934 55.426 32.04-6.099.977-21.068.917-23.866 6.899-1.476 3.153.76 5.163 6.093 6.22 11.838 4.509 23.475 8.651 35.347 12.33 21.616 6.702 30.243 9.144 36.464 18.288 8.519 12.519 16.517 27.195 25.548 41.357 10.385 16.281 26.961 32.908 40.215 49.083 17.025 20.779 15.162 16.734 14.636 43.73-.855 44.011-26.249 18.612-36.117 31.794-1.739 2.322-2.3 5.378-1.843 9.066 12.555 0 42.649 2.536 52.306-3.986 8.805-5.949 23.673-44.099 30.271-59.687l-2.079-22.303a2.935 2.935 0 012.731-3.122 2.935 2.935 0 013.122 2.731l1.421 20.315 20.416 5.117c4.13.923 7.423 1.894 10.149 2.926-2.615-6.957-2.89-13.641-.999-19.765 2.345-7.601 8.003-14.215 16.638-19.296l1.955-1.094c1.425-.76 3.2-.22 3.959 1.205.759 1.426.22 3.2-1.206 3.959l-1.745.98c-7.332 4.314-12.093 9.788-14.001 15.97-1.896 6.144-.271 14.615 3.68 22.001l.242.528c6.089 4.395 9.421 9.812 22.471 16.887 9.156 4.961 19.386 8.269 30.93 9.553-5.169 5.038-11.858 8.669-19.863 11.073-13.685 4.115-34.855 1.172-43.264 9.873-2.842 2.942-3.615 6.45-2.884 10.367 14.107-.142 88.716-3.724 97.806-11.726 3.531-3.109 5.896-8.21 7.557-14.509l6.77-15.657c28.682 1.219 78.839-22.07 72.844-54.716-3.269-16.713-8.545-33.987-15.551-51.74-19.844-50.279-47.183-98.588-100.557-119.106-27.579-10.601-56.279-9.501-85.892 1.151-6.79 2.908-12.919 5.04-18.415 6.43-4.347 1.102-8.302 1.739-11.874 1.93-8.514.457-14.881-2.712-20.693-7.132-3.645 13.136-13.699 27.652-32.458 39.347a2.977 2.977 0 01-3.149-5.056c22.23-13.861 31.147-31.611 31.272-45.345.04-4.532-.886-8.6-2.611-11.877-1.646-3.134-4.029-5.545-6.968-6.924-5.803-2.725-13.996-1.606-23.489 5.447-3.591 2.664-6.715 6.162-9.443 10.341-2.777 4.239-5.144 9.208-7.175 14.737a2.98 2.98 0 01-3.822 1.77 2.981 2.981 0 01-1.769-3.822c2.173-5.917 4.738-11.282 7.778-15.936 2.902-4.452 6.251-8.254 10.124-11.283zM88.893 63.341c2.563 0 4.918.749 6.649 1.947 1.962 1.359 3.177 3.313 3.177 5.53 0 2.218-1.215 4.17-3.168 5.529-1.73 1.203-4.09 1.947-6.658 1.947-2.567 0-4.927-.744-6.657-1.947l-.135-.103c-1.876-1.354-3.033-3.266-3.033-5.426 0-2.219 1.214-4.171 3.168-5.53 1.73-1.203 4.09-1.947 6.657-1.947z"/><path fill="#4E2F26" fill-rule="nonzero" d="M375.226 273.021a2.929 2.929 0 012.891-5.093c2.558 1.456 4.907 3.857 6.697 6.886 1.641 2.767 2.847 6.113 3.344 9.77.424 3.149-4.925 4.936-5.312 2.059-.384-2.836-1.814-6.704-3.082-8.845-1.277-2.16-2.869-3.826-4.538-4.777z"/></svg>